<svg xmlns:inkscape="http://www.inkscape.org/namespaces/inkscape" xmlns:sodipodi="http://sodipodi.sourceforge.net/DTD/sodipodi-0.dtd" xmlns="http://www.w3.org/2000/svg" xmlns:svg="http://www.w3.org/2000/svg" version="1.1" id="svg1" width="500" height="500" viewBox="0 0 500 500" sodipodi:docname="final.svg" inkscape:version="1.3.2 (091e20e, 2023-11-25, custom)">
  <defs id="defs1"/>
  <sodipodi:namedview id="namedview1" pagecolor="#ffffff" bordercolor="#000000" borderopacity="0.25" inkscape:showpageshadow="2" inkscape:pageopacity="0.0" inkscape:pagecheckerboard="0" inkscape:deskcolor="#d1d1d1" inkscape:zoom="1.642" inkscape:cx="250" inkscape:cy="103.83678" inkscape:window-width="1920" inkscape:window-height="1017" inkscape:window-x="-8" inkscape:window-y="-8" inkscape:window-maximized="1" inkscape:current-layer="g1"/>
  <g inkscape:groupmode="layer" inkscape:label="Image" id="g1">
    <g id="g2" transform="translate(-2.4360536,17.661389)">
      <path style="fill:#f1a648" d="m 347.54937,357.02065 -21.04673,-20.97936 30.19022,-30.27064 c 16.60462,-16.64886 30.66653,-31.53744 31.24868,-33.08575 1.35307,-3.59865 1.352,-8.77588 -0.003,-12.3698 -0.58356,-1.54831 -22.18995,-23.98222 -48.01421,-49.85315 L 292.97159,163.4239 313.8343,142.71195 C 329.27269,127.38513 335.31705,122 337.08175,122 c 1.82272,0 18.8427,16.43819 72.21868,69.75 38.40867,38.3625 70.42454,70.875 71.14637,72.25 0.79849,1.52102 1.0009,3.28319 0.51688,4.5 -1.3767,3.46105 -108.3233,109.5 -110.43728,109.5 -1.17692,0 -10.14465,-8.18805 -22.97703,-20.97935 z M 88.497321,306.75 18.5,236.5 88.75,306.49732 C 154.05403,371.56646 159.44862,377 158.74732,377 158.60835,377 126.99585,345.3875 88.497321,306.75 Z M 201.99734,193.25 131.5,122.5 l 70.75,70.49734 c 38.9125,38.77354 70.75,70.61104 70.75,70.75 0,0.13896 -0.1137,0.25266 -0.25266,0.25266 -0.13896,0 -31.97646,-31.8375 -70.75,-70.75 z" id="path4"/>
      <path style="fill:#71ad2d" d="M 244.04699,356.5126 222.5,335.02519 252.14478,305.2626 c 16.30462,-16.36943 30.17962,-30.81559 30.83333,-32.10257 1.52859,-3.00941 1.52906,-10.30925 8.5e-4,-13.32006 -0.65324,-1.28698 -22.07177,-23.27278 -47.59675,-48.85733 l -46.40904,-46.51737 21.31658,-21.23263 C 223.43428,130.13986 232.35367,122 233.55578,122 c 1.24776,0 27.59472,25.64714 73.19684,71.2526 C 363.01694,249.52105 378,265.03004 378,267.00091 c 0,1.96393 -11.56516,14.05525 -54.27799,56.74739 C 289.6221,357.8317 268.72839,378 267.519,378 c -1.17179,0 -10.35602,-8.40768 -23.47201,-21.4874 z M 218.5,323 c 29.14611,-29.15 53.21792,-53 53.49292,-53 0.275,0 -23.34681,23.85 -52.49292,53 -29.14611,29.15 -53.21792,53 -53.49292,53 -0.275,0 23.34681,-23.85 52.49292,-53 z M 71.5,177 c 29.14611,-29.15 53.21792,-53 53.49292,-53 0.275,0 -23.34681,23.85 -52.49292,53 -29.146108,29.15 -53.217924,53 -53.492924,53 -0.275,0 23.346816,-23.85 52.492924,-53 z" id="path3"/>
      <path style="fill:#751314" d="M 89.266411,306.7595 C 42.108757,259.619 18,234.83806 18,233.5061 18,231.13009 126.64066,122 129.006,122 131.37179,122 273,264.14057 273,266.51492 273,268.86377 164.33389,378 161.99515,378 c -0.80428,0 -33.53221,-32.05822 -72.728739,-71.2405 z" id="path2"/>
    </g>
  </g>
</svg>